<svg xmlns="http://www.w3.org/2000/svg" width="304" height="113" viewBox="0 0 304 113">
  <g id="Group_1877" data-name="Group 1877" transform="translate(-279.213 -245.658)">
    <g id="Group_1789" data-name="Group 1789" transform="translate(279.213 245.658)">
      <path id="Path_412" data-name="Path 412" d="M478.609,282.026c0-23.078,11.643-36.039,30.779-36.039,21.433,0,29.027,14.321,29.369,36.115.054,3.437-1.126,5.134-4.706,5.135l-38.622.006c-2.914,0-3.145,1.895-3.145,3.223,0,8.485,5.695,16.5,20.918,16.5,7.976,0,12.38-.617,14.78-.617,2.523,0,3.4.876,3.393,2.671a8.028,8.028,0,0,1-.416,1.838l-.586,1.95c-.956,2.634-1.928,3.561-5.972,4.221a83.134,83.134,0,0,1-13.233.859C494.261,317.9,478.609,310.841,478.609,282.026Zm45.634-4.494c1.254,0,2.179-.291,2.106-1.993-.421-9.746-4.233-19.553-17.347-19.553-11.444,0-16.347,8.064-16.84,19-.1,2.295.165,2.543,2.275,2.543Z" transform="translate(-265.432 -245.632)" fill="#fff" fill-rule="evenodd"/>
      <path id="Path_413" data-name="Path 413" d="M560.135,317c1.845.024,3.566-1.137,3.58-2.937l-.034-65.2a3.137,3.137,0,0,0-3.45-3.02,7.183,7.183,0,0,0-2.389.508l-5.2,2.507c-2.486,1.2-2.88,2.192-2.88,5.159v60.05c.014,1.8,1.735,2.961,3.581,2.937Z" transform="translate(-259.715 -245.643)" fill="#fff" fill-rule="evenodd"/>
      <path id="Path_414" data-name="Path 414" d="M368.255,318.265c-15.3,0-31.848-11.246-31.848-36.119,0-23.328,12.329-36.488,32.441-36.488s32.381,13.16,32.381,36.488C401.229,307.019,385.986,318.265,368.255,318.265Zm.592-62.4c-14.767,0-18.995,10.294-18.995,26.636,0,17.646,7.319,24.5,18.963,24.5s18.969-6.852,18.969-24.5C387.784,266.161,383.613,255.867,368.847,255.867Z" transform="translate(-275.191 -245.658)" fill="#fff" fill-rule="evenodd"/>
      <path id="Path_415" data-name="Path 415" d="M306.086,246.021a75.868,75.868,0,0,1,16.046,1.928c1.749.407,2.527,1.153,2.584,2.364a6.348,6.348,0,0,1-.5,2.4l-1.586,4.206c-.581,1.563-2,1.987-3.7,1.985-2.392,0-8.32-1.583-14.074-1.524-6.894.07-12.251,1.359-12.312,6-.059,4.594,2.376,6.816,14.608,10.87,16.712,5.539,22.247,11.855,21.98,23-.3,12.654-7.832,20.428-28.235,20.591a113.9,113.9,0,0,1-18.657-1.651c-2.155-.368-2.921-1.122-2.922-2.4a7.72,7.72,0,0,1,.476-2.277l1.625-4.677c.426-1.3,1.384-1.82,3.262-1.8,2.535.029,6.927,1.383,16.572,1.383,10.685,0,14.992-3.789,14.992-9.013,0-3.7-.887-7.257-17.128-13.469-13.468-5.151-19.9-9.425-19.9-19.615S286.752,246.021,306.086,246.021Z" transform="translate(-279.213 -245.629)" fill="#fff"/>
    </g>
    <g id="Group_1790" data-name="Group 1790" transform="translate(417.114 246.134)">
      <path id="Path_416" data-name="Path 416" d="M457.359,246.634c-5.172.682-7.9-.535-15.186-.535-22.6,0-34.139,12.658-34.139,35.539,0,28.049,19.149,35.355,30.538,36,21.019,1.2,30.2-7.541,30.211-16.808l.068-44.708C468.851,251.29,467.372,245.314,457.359,246.634ZM455.341,296.7c0,6.862-2.229,10.278-14.51,10.278-12.891,0-18.419-11.108-18.419-25.62,0-18.7,6.422-24.854,21.182-24.939a66.83,66.83,0,0,1,9.228.686c1.933.239,2.518,1.065,2.518,3.078Z" transform="translate(-408.034 -246.099)" fill="#d24204" fill-rule="evenodd"/>
      <path id="Path_417" data-name="Path 417" d="M416.785,351.57a7.269,7.269,0,0,1-2.552.565c-2.211.039-3.534-1.331-3.429-3.741l-.005-4.782c.159-3.685,2.565-4.9,5.789-6.172l46-18.6a7.318,7.318,0,0,1,2.552-.565c2.211-.038,3.534,1.332,3.429,3.742l.007,4.782c-.16,3.685-2.566,4.9-5.79,6.172Z" transform="translate(-407.812 -239.612)" fill="#d24204" fill-rule="evenodd"/>
    </g>
  </g>
</svg>
